<svg id="Layer_1" data-name="Layer 1" xmlns="http://www.w3.org/2000/svg" xmlns:xlink="http://www.w3.org/1999/xlink" viewBox="0 0 702.75 312.33"><defs><style>.cls-1{fill:#1a1a1a;}.cls-2{fill:#414042;}.cls-3{fill:none;}.cls-4{fill:url(#linear-gradient);}</style><linearGradient id="linear-gradient" x1="495.59" y1="218.98" x2="422.61" y2="118.43" gradientUnits="userSpaceOnUse"><stop offset="0" stop-color="#f9ed32" stop-opacity="0.75"/><stop offset="1" stop-color="#fbb040"/></linearGradient></defs><title>lumo-logo</title><polygon class="cls-1" points="495.65 155.31 487.35 149.44 430.96 149.44 432.26 155.31 495.65 155.31"/><path class="cls-2" d="M153.64,197.93l-1.3,11h-4.71q-7.54,0-11.32-4.24a15.53,15.53,0,0,1-3.77-10.72v-74.6H146v68.59a50,50,0,0,0,.24,5.54,6.1,6.1,0,0,0,1,3,3.39,3.39,0,0,0,2.3,1.24A28.54,28.54,0,0,0,153.64,197.93Z"/><path class="cls-2" d="M209.79,207.72H197.53l-.59-4.36a19.77,19.77,0,0,1-14,5.54q-23.81,0-23.81-27.46V149.14h13.32v31.43q0,8.86,2.95,12.94t9.31,4.08q7.78,0,11.78-5.43v-43h13.32Z"/><path class="cls-2" d="M311,207.72H297.53V175.3q0-8.24-2.71-12.08t-9.07-3.83Q273,159.4,273,172.24v35.47H259.7V176q0-9.55-2.95-13.08t-9.43-3.53q-8.25,0-12.26,5.66v42.66H221.74V149.14h10.84l.94,5.07a23.23,23.23,0,0,1,15.79-6.13q12.26,0,18.5,9.78a17.53,17.53,0,0,1,7.37-6.89,25.89,25.89,0,0,1,12.67-2.89q11.43,0,17.26,7.19t5.84,20Z"/><path class="cls-2" d="M317.44,178.49a34.33,34.33,0,0,1,2.06-12,28,28,0,0,1,5.89-9.66,27.65,27.65,0,0,1,9.31-6.42,30.57,30.57,0,0,1,12.2-2.36A30.17,30.17,0,0,1,359,150.44a27.4,27.4,0,0,1,9.25,6.48,29.59,29.59,0,0,1,6,9.66,33,33,0,0,1,2.12,11.9,33.85,33.85,0,0,1-2.06,11.9,28.8,28.8,0,0,1-5.89,9.66,27.14,27.14,0,0,1-9.31,6.48,32.88,32.88,0,0,1-24.45,0,27.75,27.75,0,0,1-9.25-6.42,28.14,28.14,0,0,1-5.89-9.6A34.18,34.18,0,0,1,317.44,178.49Zm13.67-.06q0,8.81,4.18,14t11.61,5.17q7.43,0,11.61-5.17t4.18-14q0-8.81-4.18-13.92t-11.61-5.11q-7.42,0-11.61,5.11T331.11,178.43Z"/><polygon class="cls-3" points="427.66 156.16 414.13 193.99 443.02 193.99 437.63 156.16 427.66 156.16"/><polygon class="cls-3" points="531.97 156.16 489.97 156.16 524.25 193.99 545.95 193.99 531.97 156.16"/><polygon class="cls-4" points="536.69 207.72 524.25 193.99 489.97 156.16 483.11 148.59 427.85 87.61 436.55 148.59 437.63 156.16 443.02 193.99 444.98 207.72 447.4 224.72 552.1 224.72 536.69 207.72"/><polygon class="cls-1" points="542.93 149.44 485.03 149.44 490.35 155.31 532.56 155.31 547.17 194.84 412.92 194.84 427.06 155.31 436.64 155.31 435.81 149.44 416.61 149.44 390.02 206.87 570.21 206.87 542.93 149.44"/></svg>