<?xml version="1.0" encoding="utf-8"?>
<!-- Generator: Adobe Illustrator 20.1.0, SVG Export Plug-In . SVG Version: 6.00 Build 0)  -->
<svg version="1.1" id="Layer_1" xmlns="http://www.w3.org/2000/svg" xmlns:xlink="http://www.w3.org/1999/xlink" x="0px" y="0px"
	 viewBox="0 0 532.3 236.6" style="enable-background:new 0 0 532.3 236.6;" xml:space="preserve">
<style type="text/css">
	.st0{fill:#1E1E1E;}
	.st1{fill:#414042;}
	.st2{fill:url(#SVGID_1_);}
</style>
<title>lumo-logo</title>
<polygon class="st0" points="363.1,117.4 354.8,111.6 298.4,111.6 299.7,117.4 "/>
<path class="st1" d="M21.1,160.1l-1.3,11h-4.7c-5,0-8.8-1.4-11.3-4.2c-2.6-3-3.9-6.8-3.8-10.8V81.4h13.4V150c0,1.8,0.1,3.7,0.2,5.5
	c0.1,1.1,0.4,2.1,1,3c0.6,0.7,1.4,1.2,2.3,1.2C18.3,160,19.7,160.1,21.1,160.1z"/>
<path class="st1" d="M77.2,169.9H65l-0.6-4.4c-3.8,3.6-8.8,5.6-14,5.5c-15.9,0-23.8-9.2-23.8-27.5v-32.3h13.3v31.4
	c0,5.9,1,10.2,3,12.9c2,2.7,5.1,4.1,9.3,4.1c5.2,0,9.1-1.8,11.8-5.4v-43h13.3V169.9z"/>
<path class="st1" d="M178.4,169.9H165v-32.4c0-5.5-0.9-9.5-2.7-12.1c-1.8-2.6-4.8-3.8-9.1-3.8c-8.5,0-12.7,4.3-12.7,12.9v35.5h-13.3
	v-31.7c0-6.4-1-10.7-2.9-13.1c-2-2.4-5.1-3.5-9.4-3.5c-5.5,0-9.6,1.9-12.3,5.7v42.7H89.2v-58.6H100l0.9,5.1c4.3-4,9.9-6.1,15.8-6.1
	c8.2,0,14.3,3.3,18.5,9.8c1.7-3,4.3-5.4,7.4-6.9c3.9-2,8.3-3,12.7-2.9c7.6,0,13.4,2.4,17.3,7.2c3.9,4.8,5.8,11.5,5.8,20L178.4,169.9
	z"/>
<path class="st1" d="M184.9,140.6c0-4.1,0.7-8.2,2.1-12c1.3-3.6,3.3-6.9,5.9-9.7c2.6-2.8,5.8-4.9,9.3-6.4c3.9-1.6,8-2.4,12.2-2.4
	c4.2-0.1,8.3,0.7,12.1,2.4c3.5,1.5,6.7,3.7,9.2,6.5c2.6,2.8,4.6,6.1,6,9.7c1.4,3.8,2.2,7.8,2.1,11.9c0,4.1-0.7,8.1-2.1,11.9
	c-1.3,3.6-3.3,6.9-5.9,9.7c-2.6,2.8-5.8,5-9.3,6.5c-7.8,3.1-16.6,3.1-24.4,0c-3.5-1.5-6.6-3.7-9.2-6.4c-2.6-2.8-4.6-6-5.9-9.6
	C185.6,148.8,184.9,144.7,184.9,140.6z M198.6,140.6c0,5.9,1.4,10.5,4.2,14c2.8,3.5,6.7,5.2,11.6,5.2c5,0,8.8-1.7,11.6-5.2
	c2.8-3.4,4.2-8.1,4.2-14c0-5.9-1.4-10.5-4.2-13.9c-2.8-3.4-6.7-5.1-11.6-5.1c-4.9,0-8.8,1.7-11.6,5.1
	C200,130,198.6,134.7,198.6,140.6L198.6,140.6z"/>
<linearGradient id="SVGID_1_" gradientUnits="userSpaceOnUse" x1="363.0425" y1="56.8918" x2="290.0625" y2="157.4418" gradientTransform="matrix(1 0 0 -1 0 238)">
	<stop  offset="0" style="stop-color:#F9ED32;stop-opacity:0.75"/>
	<stop  offset="1" style="stop-color:#FBB040"/>
</linearGradient>
<polygon class="st2" points="404.1,169.8 391.7,156.1 357.4,118.3 350.6,110.7 295.3,49.7 304,110.7 305.1,118.3 310.5,156.1 
	312.4,169.8 314.9,186.9 419.6,186.9 "/>
<polygon class="st1" points="410.4,111.6 352.5,111.6 357.8,117.4 400,117.4 414.6,157 280.4,157 294.5,117.4 304.1,117.4 
	303.3,111.6 284.1,111.6 257.5,169 437.7,169 "/>
</svg>
